<?xml version="1.0" encoding="UTF-8" standalone="no"?>
<svg
   xmlns:dc="http://purl.org/dc/elements/1.1/"
   xmlns:cc="http://creativecommons.org/ns#"
   xmlns:rdf="http://www.w3.org/1999/02/22-rdf-syntax-ns#"
   xmlns:svg="http://www.w3.org/2000/svg"
   xmlns="http://www.w3.org/2000/svg"
   xmlns:sodipodi="http://sodipodi.sourceforge.net/DTD/sodipodi-0.dtd"
   xmlns:inkscape="http://www.inkscape.org/namespaces/inkscape"
   id="Layer_1"
   width="300"
   height="253.82079"
   viewBox="0 0 826.05882 703.69275"
   version="1.1"
   sodipodi:docname="OWL_2023_Logo_Primary_BlackBG.svg"
   inkscape:version="1.0.2-2 (e86c870879, 2021-01-15)">
  <metadata
     id="metadata63">
    <rdf:RDF>
      <cc:Work
         rdf:about="">
        <dc:format>image/svg+xml</dc:format>
        <dc:type
           rdf:resource="http://purl.org/dc/dcmitype/StillImage" />
        <dc:title></dc:title>
      </cc:Work>
    </rdf:RDF>
  </metadata>
  <sodipodi:namedview
     pagecolor="#ffffff"
     bordercolor="#666666"
     borderopacity="1"
     objecttolerance="10"
     gridtolerance="10"
     guidetolerance="10"
     inkscape:pageopacity="0"
     inkscape:pageshadow="2"
     inkscape:window-width="1920"
     inkscape:window-height="1017"
     id="namedview61"
     showgrid="false"
     fit-margin-top="0"
     fit-margin-left="0"
     fit-margin-right="0"
     fit-margin-bottom="0"
     inkscape:zoom="0.73143898"
     inkscape:cx="330.56421"
     inkscape:cy="449.63533"
     inkscape:window-x="-8"
     inkscape:window-y="-8"
     inkscape:window-maximized="1"
     inkscape:current-layer="Layer_1" />
  <defs
     id="defs4">
    <style
       id="style2">
      .cls-1 {
        fill: #f06314;
      }

      .cls-2 {
        fill: #fff;
      }

      .cls-3 {
        fill: #000;
      }
    </style>
  </defs>
  <g
     id="g917"
     transform="matrix(2.538208,0,0,2.538208,-1.1228,0)">
    <rect
       class="cls-2"
       width="311.87"
       height="277.23999"
       rx="28.940001"
       ry="28.940001"
       id="rect6"
       x="0"
       y="0" />
    <g
       id="g58">
      <path
         class="cls-3"
         d="m 316.8,16.42 h 1.15 v 4.89 h 1.24 v -4.89 h 1.15 v -1.08 h -3.54 z m 9.79,-1.08 h -1.25 l -1.32,3.63 -1.38,-3.63 h -1.24 l -0.88,5.97 h 1.17 l 0.57,-3.66 1.41,3.66 h 0.68 l 1.43,-3.76 0.63,3.76 h 1.27 l -1.08,-5.97 z"
         id="path8" />
      <g
         id="g44">
        <g
           id="g28">
          <path
             d="m 281.49,187.51 v 8.51 c 0,0.12 -0.1,0.22 -0.22,0.22 h -13.16 c -0.12,0 -0.22,-0.1 -0.22,-0.22 v -8.51 c 0,-0.12 -0.1,-0.22 -0.22,-0.22 h -7.33 c -0.12,0 -0.22,0.1 -0.22,0.22 v 22.38 c 0,0.12 0.1,0.22 0.22,0.22 h 7.33 c 0.12,0 0.22,-0.1 0.22,-0.22 v -8.51 c 0,-0.12 0.1,-0.22 0.22,-0.22 h 13.16 c 0.12,0 0.22,0.1 0.22,0.22 v 8.51 c 0,0.12 0.1,0.22 0.22,0.22 h 7.33 c 0.12,0 0.22,-0.1 0.22,-0.22 v -22.38 c 0,-0.12 -0.1,-0.22 -0.22,-0.22 h -7.33 c -0.12,0 -0.22,0.1 -0.22,0.22 z"
             id="path10" />
          <path
             d="m 106.38,193.07 v -5.55 c 0,-0.12 -0.1,-0.22 -0.22,-0.22 h -19.4 c -0.08,0 -0.16,0.05 -0.19,0.12 l -3.37,6.62 c 0,0 -0.02,0.06 -0.02,0.1 v 15.75 c 0,0.12 0.1,0.22 0.22,0.22 h 22.78 c 0.12,0 0.22,-0.1 0.22,-0.22 v -5.55 c 0,-0.12 -0.1,-0.22 -0.22,-0.22 H 91.17 c -0.12,0 -0.22,-0.1 -0.22,-0.22 v -2.52 c 0,-0.12 0.1,-0.22 0.22,-0.22 h 12.42 c 0.12,0 0.22,-0.1 0.22,-0.22 v -4.49 c 0,-0.12 -0.1,-0.22 -0.22,-0.22 H 91.17 c -0.12,0 -0.22,-0.1 -0.22,-0.22 v -2.52 c 0,-0.12 0.1,-0.22 0.22,-0.22 h 15.01 c 0.12,0 0.22,-0.1 0.22,-0.22 z"
             id="path12" />
          <path
             d="m 194.17,187.3 h -8.45 c -0.08,0 -0.16,0.05 -0.19,0.12 l -11.4,22.38 c -0.07,0.14 0.03,0.32 0.19,0.32 h 8.22 c 0.08,0 0.16,-0.05 0.19,-0.12 l 7.01,-13.76 c 0.08,-0.16 0.31,-0.16 0.39,0 l 7.01,13.76 c 0.04,0.07 0.11,0.12 0.19,0.12 h 8.22 c 0.16,0 0.27,-0.17 0.19,-0.32 l -11.4,-22.38 c -0.04,-0.07 -0.11,-0.12 -0.19,-0.12 z"
             id="path14" />
          <path
             d="m 173.28,187.41 -5,9.81 c -0.08,0.16 -0.31,0.16 -0.39,0 l -5,-9.81 c -0.04,-0.07 -0.11,-0.12 -0.19,-0.12 h -5.58 c -0.08,0 -0.16,0.05 -0.19,0.12 l -5,9.81 c -0.08,0.16 -0.31,0.16 -0.39,0 l -5,-9.81 c -0.04,-0.07 -0.11,-0.12 -0.19,-0.12 h -8.22 c -0.16,0 -0.27,0.17 -0.19,0.32 l 11.4,22.38 c 0.04,0.07 0.11,0.12 0.19,0.12 h 4.41 c 0.08,0 0.16,-0.05 0.19,-0.12 l 5.58,-10.95 c 0.08,-0.16 0.31,-0.16 0.39,0 l 5.58,10.95 c 0.04,0.07 0.11,0.12 0.19,0.12 h 4.41 c 0.08,0 0.16,-0.05 0.19,-0.12 l 11.41,-22.38 c 0.07,-0.14 -0.03,-0.32 -0.19,-0.32 h -8.22 c -0.08,0 -0.16,0.05 -0.19,0.12 z"
             id="path16" />
          <path
             d="m 250.95,187.3 h -17.08 c -0.78,0 -1.53,0.12 -2.22,0.33 -0.06,0.02 -0.1,0.06 -0.13,0.11 l -3.65,7.17 c 0,0 -0.02,0.06 -0.02,0.1 v 10.38 c 0,2.61 2.7,4.72 6.02,4.72 h 17.08 c 3.33,0 6.02,-2.11 6.02,-4.72 v -4.01 c 0,-0.12 -0.1,-0.22 -0.22,-0.22 h -7.33 c -0.12,0 -0.22,0.1 -0.22,0.22 v 1.65 c 0,0.6 -0.49,1.09 -1.09,1.09 h -11.42 c -0.6,0 -1.09,-0.49 -1.09,-1.09 v -8.66 c 0,-0.6 0.49,-1.09 1.09,-1.09 h 11.42 c 0.6,0 1.09,0.49 1.09,1.09 v 1.65 c 0,0.12 0.1,0.22 0.22,0.22 h 7.33 c 0.12,0 0.22,-0.1 0.22,-0.22 v -4.01 c 0,-2.61 -2.7,-4.72 -6.02,-4.72 z"
             id="path18" />
          <path
             d="m 227.84,187.3 h -29.63 c -0.16,0 -0.27,0.17 -0.19,0.32 l 2.83,5.55 c 0.04,0.07 0.11,0.12 0.19,0.12 h 7.89 c 0.12,0 0.22,0.1 0.22,0.22 v 16.39 c 0,0.12 0.1,0.22 0.22,0.22 h 7.33 c 0.12,0 0.22,-0.1 0.22,-0.22 v -16.39 c 0,-0.12 0.1,-0.22 0.22,-0.22 h 7.89 c 0.08,0 0.16,-0.05 0.19,-0.12 l 2.83,-5.55 c 0.07,-0.14 -0.03,-0.32 -0.19,-0.32 z"
             id="path20" />
          <path
             d="m 71.52,209.99 11.4,-22.38 c 0.07,-0.14 -0.03,-0.32 -0.19,-0.32 h -8.22 c -0.08,0 -0.16,0.05 -0.19,0.12 l -7.01,13.76 c -0.08,0.16 -0.31,0.16 -0.39,0 l -7.01,-13.76 c -0.04,-0.07 -0.11,-0.12 -0.19,-0.12 H 51.5 c -0.16,0 -0.27,0.17 -0.19,0.32 l 11.4,22.38 c 0.04,0.07 0.11,0.12 0.19,0.12 h 8.45 c 0.08,0 0.16,-0.05 0.19,-0.12 z"
             id="path22" />
          <path
             d="m 47.75,187.65 c -0.03,-0.06 -0.08,-0.1 -0.14,-0.11 -0.6,-0.15 -1.23,-0.24 -1.89,-0.24 H 28.64 c -3.33,0 -6.02,2.11 -6.02,4.72 v 13.37 c 0,0.71 0.2,1.38 0.55,1.98 0.07,0.11 0.22,0.15 0.32,0.07 l 6.8,-5.25 c 0.05,-0.04 0.08,-0.1 0.08,-0.17 v -7.64 c 0,-0.6 0.49,-1.09 1.09,-1.09 h 11.42 c 0.6,0 1.09,0.49 1.09,1.09 v 8.66 c 0,0.6 -0.49,1.09 -1.09,1.09 h -9.85 c 0,0 -0.09,0.02 -0.13,0.05 l -6.71,5.18 c -0.14,0.11 -0.1,0.32 0.06,0.38 0.73,0.25 1.53,0.38 2.38,0.38 h 17.08 c 3.33,0 6.02,-2.11 6.02,-4.72 v -9.86 c 0,0 0,-0.07 -0.02,-0.1 l -3.97,-7.78 z"
             id="path24" />
          <path
             d="m 128.19,196.24 h -7.5 c -0.12,0 -0.22,0.1 -0.22,0.22 v 4.56 c 0,0.09 0.04,0.18 0.11,0.24 l 9.54,8.79 c 0,0 0.09,0.06 0.15,0.06 h 9.83 c 0.2,0 0.29,-0.24 0.15,-0.38 l -9.3,-8.57 h 0.16 c 3.33,0 6.02,-2.11 6.02,-4.72 v -4.43 c 0,-2.61 -2.7,-4.72 -6.02,-4.72 h -21.34 c -0.12,0 -0.22,0.1 -0.22,0.22 v 22.38 c 0,0.12 0.1,0.22 0.22,0.22 h 7.33 c 0.12,0 0.22,-0.1 0.22,-0.22 V 193.5 c 0,-0.12 0.1,-0.22 0.22,-0.22 h 10.67 c 0.6,0 1.09,0.49 1.09,1.09 v 0.78 c 0,0.6 -0.49,1.09 -1.09,1.09 z"
             id="path26" />
        </g>
        <g
           id="g42">
          <path
             class="cls-1"
             d="m 289.25,228.19 v -8.61 c 0,-0.19 -0.15,-0.34 -0.34,-0.34 h -35.33 c -0.19,0 -0.34,0.15 -0.34,0.34 v 34.71 c 0,0.19 0.15,0.34 0.34,0.34 h 35.33 c 0.19,0 0.34,-0.15 0.34,-0.34 v -8.61 c 0,-0.19 -0.15,-0.34 -0.34,-0.34 h -23.28 c -0.19,0 -0.34,-0.15 -0.34,-0.34 v -3.91 c 0,-0.19 0.15,-0.34 0.34,-0.34 h 19.27 c 0.19,0 0.34,-0.15 0.34,-0.34 v -6.96 c 0,-0.19 -0.15,-0.34 -0.34,-0.34 h -19.27 c -0.19,0 -0.34,-0.15 -0.34,-0.34 v -3.91 c 0,-0.19 0.15,-0.34 0.34,-0.34 h 23.28 c 0.19,0 0.34,-0.15 0.34,-0.34 z"
             id="path30" />
          <path
             class="cls-1"
             d="m 236.3,219.58 v 24.07 c 0,0.93 -0.75,1.69 -1.69,1.69 h -16.76 c -0.93,0 -1.69,-0.75 -1.69,-1.69 v -24.07 c 0,-0.19 -0.15,-0.34 -0.34,-0.34 h -11.36 c -0.19,0 -0.34,0.15 -0.34,0.34 v 27.72 c 0,4.04 4.18,7.32 9.34,7.32 H 239 c 5.16,0 9.34,-3.28 9.34,-7.32 v -27.72 c 0,-0.19 -0.15,-0.34 -0.34,-0.34 h -11.36 c -0.19,0 -0.34,0.15 -0.34,0.34 z"
             id="path32" />
          <path
             class="cls-1"
             d="M 34.33,219.24 H 22.96 c -0.19,0 -0.34,0.15 -0.34,0.34 v 34.71 c 0,0.19 0.15,0.34 0.34,0.34 h 36.61 c 0.19,0 0.34,-0.15 0.34,-0.34 v -8.61 c 0,-0.19 -0.15,-0.34 -0.34,-0.34 H 35.01 c -0.19,0 -0.34,-0.15 -0.34,-0.34 v -25.42 c 0,-0.19 -0.15,-0.34 -0.34,-0.34 z"
             id="path34" />
          <path
             class="cls-1"
             d="m 134.51,219.42 c -0.06,-0.11 -0.17,-0.18 -0.3,-0.18 h -13.1 c -0.13,0 -0.24,0.07 -0.3,0.18 l -17.68,34.71 c -0.11,0.22 0.05,0.49 0.3,0.49 h 12.76 c 0.13,0 0.24,-0.07 0.3,-0.18 l 10.88,-21.35 c 0.06,-0.12 0.18,-0.18 0.3,-0.18 0.12,0 0.24,0.06 0.3,0.18 l 10.88,21.35 c 0.06,0.11 0.17,0.18 0.3,0.18 h 12.76 c 0.25,0 0.41,-0.27 0.3,-0.49 l -17.68,-34.71 z"
             id="path36" />
          <path
             class="cls-1"
             d="m 198.88,233.04 h -20.7 l -0.3,0.18 -3.55,6.96 c -0.11,0.22 0.05,0.49 0.3,0.49 h 12.21 c 0.19,0 0.34,0.15 0.34,0.34 v 2.64 c 0,0.93 -0.75,1.69 -1.69,1.69 h -18.98 c -0.93,0 -1.69,-0.75 -1.69,-1.69 v -13.44 c 0,-0.93 0.75,-1.69 1.69,-1.69 h 27.77 c 0.11,-0.07 0.19,-0.12 0.3,-0.18 l 4.39,-8.61 c 0.11,-0.22 -0.05,-0.49 -0.3,-0.49 h -36.55 c -5.16,0 -9.34,3.28 -9.34,7.32 v 17.68 c 0,0.14 0.03,0.28 0.1,0.41 l 4.43,8.7 c 0.1,0.19 0.26,0.35 0.46,0.43 1.3,0.54 2.78,0.85 4.35,0.85 h 27.76 c 5.16,0 9.34,-3.28 9.34,-7.32 v -13.92 c 0,-0.19 -0.15,-0.34 -0.34,-0.34 z"
             id="path38" />
          <path
             class="cls-1"
             d="m 76.85,245 v -3.91 c 0,-0.19 0.15,-0.34 0.34,-0.34 h 19.27 c 0.19,0 0.34,-0.15 0.34,-0.34 v -6.96 c 0,-0.19 -0.15,-0.34 -0.34,-0.34 H 77.19 c -0.19,0 -0.34,-0.15 -0.34,-0.34 v -3.91 c 0,-0.19 0.15,-0.34 0.34,-0.34 h 23.28 c 0.19,0 0.34,-0.15 0.34,-0.34 v -8.61 c 0,-0.19 -0.15,-0.34 -0.34,-0.34 H 65.14 c -0.19,0 -0.34,0.15 -0.34,0.34 v 34.71 c 0,0.19 0.15,0.34 0.34,0.34 h 32.05 c 0.13,0 0.24,-0.07 0.3,-0.18 l 4.39,-8.61 c 0.11,-0.22 -0.05,-0.49 -0.3,-0.49 H 77.19 c -0.19,0 -0.34,-0.15 -0.34,-0.34 z"
             id="path40" />
        </g>
      </g>
      <g
         id="g56">
        <path
           d="m 270.63,166.68 c -1.37,-1.25 -3.56,-3.32 -4.44,-4.16 -2.87,-3.18 -5.62,-5.23 -5.62,-5.23 -2.28,-1.69 -5.4,-3.84 -5.4,-3.84 l 0.26,-1.95 h 1.41 l -0.52,-0.63 c 0,0 -2.84,-2.59 -4.43,-3.96 -1.51,-1.37 -2.27,-2 -2.59,-2.22 -0.98,-0.64 -3.94,-2.46 -3.94,-2.46 -7.14,-4.67 -10.31,-6.12 -11.08,-6.54 -2.8,-1.25 -10.36,-5.15 -10.36,-5.15 -1.77,-0.99 -3.39,-1.03 -4.65,-1.29 -3.1,-0.63 -4.6,-1.51 -5.18,-1.85 -1.31,-0.82 -3.26,-2.53 -3.64,-2.86 -0.52,-0.49 -1.03,-0.59 -1.39,-0.64 -0.31,-0.08 -2.35,-0.5 -2.35,-0.5 -6.45,-1.61 -11.16,-3.8 -13.85,-5.17 -1.05,-0.54 -5.53,-2.79 -5.53,-2.79 -0.85,-0.43 -1.7,-0.9 -2.52,-1.4 0.04,2.79 -0.74,3.49 -0.82,3.57 0.28,0.9 0.88,2.25 0.88,2.25 1.37,2.62 1.96,2.83 2.9,3.42 1.9,0.91 2.2,2.54 2.2,2.54 0.51,0.06 0.89,0.32 1.11,0.6 0.9,1.1 0.47,3.09 0.47,3.09 1.03,0.54 1.11,1.01 1.22,1.85 0.25,1.47 -0.17,1.84 -0.38,2.34 -0.37,0.37 -0.3,1.55 -0.37,3.39 0,2.6 -0.09,2.39 -0.27,2.81 -0.86,1 -1.39,0.25 -2.05,-0.4 -0.71,-0.73 -0.8,-1.23 -0.91,-1.78 -0.09,-0.76 -0.61,-1.28 -0.61,-1.28 -0.5,-0.49 -1.27,-1.54 -1.8,-2.27 -0.77,-1.2 -1.96,-2.63 -1.96,-2.63 -1.67,-2.01 -2.75,-3.05 -3.47,-3.91 -0.9,-1.02 -1.64,-1.54 -2.46,-2.08 -2.4,-1.53 -7.22,-3.07 -8.43,-3.42 -1.18,-0.23 -1.37,-0.67 -1.37,-0.67 l -0.42,-0.63 c -9.38,-1.08 -19.48,2.62 -21.13,3.24 -2.3,0.83 -3.22,1.08 -3.95,1.29 -0.55,0.14 -1.83,0.46 -4.17,1.08 -2.2,0.59 -4.01,0.53 -4.01,0.53 0,0 -0.95,-0.05 -4.59,-0.15 -3.65,-0.1 -3.68,-0.37 -4.28,-0.65 -1.03,-0.41 -1.85,-1.67 -2.78,-2.89 -0.98,-1.38 -1.01,-1.91 -1.07,-2.38 0.18,-3.15 3.75,-7.36 3.75,-7.36 l 0.06,-0.02 c 0.12,-0.15 0.19,-0.23 0.19,-0.23 13.05,-15.72 27.28,-21.5 29.97,-22.79 3.09,-1.29 4.43,-1.99 4.43,-1.99 0,0 -1.66,-3.07 -1.92,-3.61 -0.23,-0.46 -0.67,-1.76 -0.67,-1.76 l -0.15,-0.41 -0.4,-0.9 c -0.72,-0.16 -6.02,-1.29 -7.44,-1.63 -1.56,-0.46 -2.49,0.17 -2.49,0.17 -1.75,0.62 -2.06,0.37 -2.64,0.3 -1.13,-0.28 -1.59,-0.4 -1.99,-0.42 -1.23,0.05 -2.17,-1.04 -2.17,-1.04 l -1.62,-1.75 c 0,0 -4.33,-4.57 -5.09,-5.38 -0.74,-0.74 -0.77,-1.49 -0.83,-2.01 -0.09,-1.82 -0.24,-2.62 -0.44,-2.85 -0.34,-0.21 -0.49,-0.02 -1.59,0.33 v 0 c -0.6,0.21 -1.12,0.36 -1.5,0.45 -2.42,0.31 -3.63,0.15 -4.83,-0.02 -2.31,-0.43 -2.47,-0.43 -2.79,-0.4 -0.71,0.07 -0.56,0.77 -0.56,0.77 0,0 0.14,1 0.32,2.01 0.28,1.17 -0.49,1.29 -0.49,1.29 0,0 -7.5,-2.65 -8.23,-2.93 -0.58,-0.18 -0.94,-0.05 -0.94,-0.05 0,0 -0.03,0.2 -0.11,0.63 -0.01,0.17 0.03,1.02 -0.01,1.5 -0.14,1.45 -1.18,1.71 -1.59,1.88 -1.66,0.59 -2,0.52 -3.39,0.41 -1.35,-0.16 -4.67,-0.38 -8,-0.67 -3.92,-0.36 -5.83,-2.32 -6.37,-2.82 -1.65,-1.47 -2.23,-1.65 -2.78,-1.95 -2.97,-1.63 -6.71,-1.54 -6.71,-1.54 -1.4,-0.01 -1.49,-0.49 -1.59,-0.65 -0.12,-0.16 -0.35,-0.82 -0.35,-0.82 -2.65,2.68 -3.49,2.93 -3.77,3.17 l -0.33,0.24 -0.11,0.79 c -0.22,0.95 -0.71,1.24 -1.29,1.75 -0.82,0.68 -1.1,0.54 -1.99,0.46 -1.86,-0.12 -6.48,-1.13 -8.1,-1.49 -1.47,-0.27 -1.76,-0.97 -1.76,-0.97 0,0 -2.11,-2.47 -2.44,-2.79 -2.84,0 -5.63,-0.47 -6.51,-0.61 -6.27,-1.2 -7.3,-2.58 -8.07,-3.3 -1.21,-1.07 -3.4,-4.46 -3.4,-4.46 -0.57,-0.92 -1.4,-0.7 -2.12,-0.75 -1.38,0.04 -2.05,-1 -2.05,-1 L 39.18,53.9 c 0,0 -0.15,-0.03 -1.03,-0.2 -0.11,-1.2 -0.12,-1.54 -0.1,-2.77 0.29,-0.12 1.03,-0.18 1.03,-0.18 l 0.16,-0.28 c 0,0 0.06,-0.25 0.14,-0.84 C 41,49 41.5,50.17 41.5,50.17 l 1.92,-0.02 c 0,0 0.09,-1.69 0.12,-2.39 0.78,-0.37 1.1,-0.03 1.27,0.11 0.39,0.43 0.88,0.42 0.88,0.42 0,0 16.53,-0.41 18.38,-0.46 1.68,0.04 2.24,-0.27 2.84,-0.5 1.25,-0.61 1.8,-0.33 2.16,-0.15 0.47,0.4 0.89,0.3 1.17,0.28 1.2,-0.08 1.74,0.46 2.47,0.95 0.96,0.73 1.37,0.77 1.37,0.77 0.46,0.1 0.54,0.4 0.54,0.4 0,0 0.62,0.97 0.98,1.6 0.36,0.63 0.25,0.67 0.24,1.01 -0.03,0.66 -0.38,1.84 -0.38,1.84 0.41,0.17 1.48,0.09 1.48,0.09 2.22,-0.01 2.92,0.5 3.38,0.78 0.47,0.37 0.78,0.47 0.78,0.47 0,0 0.18,-0.22 0.52,-0.74 1.07,-0.13 1.82,-0.13 2.38,-0.13 1.87,-0.12 2.32,0.23 2.32,0.23 1.15,0.54 1.26,0.47 2.25,0.51 2.4,0 3.87,-0.41 5.01,-0.76 2.41,-0.85 5.15,-1.42 7.09,-1.63 3.83,-0.63 8.08,1.76 8.08,1.76 1.47,0.71 2.02,0.62 2.84,0.61 3.76,-0.1 6.85,-0.73 8.51,-1.02 0.61,-0.09 1.2,-0.24 1.75,-0.42 0,0 0.23,-0.09 1.06,-0.55 0.91,-0.43 1.4,-0.68 1.92,-0.93 0.18,-0.13 0.45,-0.36 0.46,-0.69 0,-0.63 -0.8,-0.95 -1.39,-1.17 -0.25,-0.09 -1.14,-0.43 -1.33,-0.51 -0.5,-0.21 -0.65,-0.36 -0.89,-0.53 0.1,-0.38 0.29,-0.47 0.63,-0.79 0.39,-0.32 0.59,-0.64 0.85,-0.98 0.88,-1.12 0.39,-2.23 0.27,-2.49 -0.33,-0.57 -0.5,-0.97 -0.5,-0.97 -0.25,-0.57 -0.3,-1.23 -0.27,-1.75 0.02,-0.59 0.11,-1.02 0.1,-1.27 -1.63,0.87 -1.7,1.89 -1.84,2.59 -0.1,0.9 0.29,2.64 0.29,2.64 -0.24,-0.22 -0.53,-0.53 -0.53,-0.53 0,0 -1.17,-2 -1.67,-2.82 -1.16,-1.87 -0.45,-3.37 -0.31,-3.73 0.12,-0.29 0.99,-2.1 1.23,-2.59 -0.2,-0.28 -0.4,-0.45 -0.79,-0.67 -2.7,-1.71 -3.48,-3.39 -3.48,-3.39 0.16,0.1 0.34,0.2 0.57,0.3 0.38,0.18 0.62,0.37 1.46,0.65 1.54,0.39 2.22,-0.15 3.59,-1.18 0.31,-0.22 0.63,-0.27 0.93,-0.38 0,0 -0.48,-3.28 3.07,-6.28 1.76,-1.52 4.8,-4.35 5.01,-5.63 0.1,0.79 -0.03,3.88 -1.03,7.06 0.1,-0.16 0.34,-0.52 0.69,-0.97 0.32,-0.52 0.65,-1.03 1.02,-1.51 0.47,-0.6 0.99,-1.17 1.57,-1.66 0.99,-0.81 2.29,-1.33 3.47,-1.77 1.22,-0.46 2.49,-0.81 3.74,-1.12 1.48,-0.36 3.01,-0.66 4.41,-1.28 0.68,-0.35 2.52,-1.03 3.6,-3.53 H 28.95 c -7.49,0 -13.61,6.12 -13.61,13.61 v 129.4 c 0,7.52 6.09,13.61 13.61,13.61 h 240.72 c 0,-1.37 1.12,-2.64 1.91,-3.51 0.42,-0.46 -0.95,-1.77 -0.95,-1.77 z"
           id="path46" />
        <path
           class="cls-2"
           d="m 144.92,26.51 c 0,0 -0.01,0 -0.02,0 h 0.01 c 0,0 0.01,0 0.01,0 z"
           id="path48" />
        <path
           d="m 68.54,64.9 c 0,0 -1.41,-0.34 -1.69,-0.42 -0.36,-0.1 -0.57,-0.08 -1.28,-0.72 -0.46,-0.4 -1.24,-0.95 -1.44,-1.87 -0.24,-0.96 -0.48,-1.79 -0.48,-1.79 0,0 0.37,-0.16 1.44,-0.15 0.52,0.01 0.76,0.03 0.76,0.03 0,0 0.34,1.03 0.67,1.43 0.38,0.43 0.73,0.76 0.98,1.43 0.1,0.28 0.18,0.61 0.54,0.9 0.17,0.14 0.42,0.22 0.44,0.87 0.03,0.19 0.05,0.29 0.05,0.29"
           id="path50" />
        <path
           d="m 173.16,111.01 c -0.46,0.46 -0.66,0.77 -1.24,1.44 -3.61,0.31 -10.15,-0.25 -10.15,-0.25 -0.06,-0.64 0.48,-0.62 1.43,-0.91 3.35,-1.08 7.69,-3.24 8.96,-3.97 1.3,-0.85 1.94,-1.17 1.94,-1.17 l 0.8,0.38 v 0.38 c 0,0 -0.5,0.67 -0.5,0.67 -0.74,0.85 -0.76,1.29 -0.76,1.67 0.11,1 -0.19,1.41 -0.47,1.75"
           id="path52" />
        <path
           class="cls-1"
           d="m 296.54,158.35 c 0,7.48 -6.12,13.61 -13.61,13.61 h -5.69 c 0.57,-0.26 0.96,-0.66 1.24,-1.17 0.53,-0.96 1.28,-4.63 1.25,-5 -0.03,-0.38 -0.2,-0.89 -0.78,-1.42 -0.57,-0.41 -2.43,-1.58 -3.1,-3.11 -0.71,-1.4 -1.12,-2.3 -1.12,-2.3 0,0 1.01,-0.99 0.78,-2.98 -0.06,-0.3 -0.03,-0.57 -0.68,-2.49 -0.57,-1.67 -1.09,-3.55 -2.91,-5.7 -0.34,-0.39 -0.45,-0.52 -0.61,-0.94 -0.07,-0.15 -0.04,-0.27 -0.72,-0.63 -0.63,-0.27 -1.01,-0.58 -2.34,-0.6 -0.59,0.73 -1.21,1.44 -1.21,1.44 0,0 -0.91,-0.11 -1.47,-0.19 -0.34,-0.06 -0.6,-0.22 -1.56,0.45 -0.45,0.28 -0.75,0.47 -0.94,0.6 0,0 -0.16,-0.11 -0.49,-0.34 -2.03,-1.44 -4.53,-3.8 -6.92,-6.13 -5.02,-4.89 -9.35,-10.17 -9.35,-10.17 -1.14,-1.18 -2.47,-3.51 -4.96,-5.64 -1.73,-1.48 -4.31,-3.3 -8.18,-5 -0.87,-0.38 -0.81,-0.65 -10.8,-2.21 -1.07,-0.17 -2.93,-1.13 -4.66,-2.88 -2.01,-2.1 -7.94,-6.5 -11.33,-9.71 0,0 -4.38,-3.72 -7.77,-6.69 -6.26,-5.3 -9.36,-7.44 -9.36,-7.44 -1.11,-1.2 -2.45,-3.16 -3.05,-6.18 -0.37,-1.08 -1.04,-3.82 -3.38,-6.6 0,0 -2.7,-2.97 -6.85,-5.06 -0.55,-0.31 -1.49,-0.72 -3.05,-2.11 0.14,-0.71 0.08,-1.87 0.08,-1.87 -0.13,-1.37 -0.35,-4.1 -0.5,-4.4 -1.1,-0.73 -1.5,-0.97 -1.5,-0.97 v -1.55 c 0,0 0.48,-0.41 1.06,-0.87 0.3,-0.3 0.6,-0.27 0.52,-1.43 0,-1.13 0.05,-2.44 0.05,-2.44 0,0 0.12,-0.76 -0.86,-1.94 -0.95,-1.36 -4.54,-6.39 -6.09,-8.52 0,0 -0.8,-1.09 -1.11,-1.45 -0.23,-0.24 -0.43,-0.59 -1.39,-0.78 -0.96,-0.26 -1.59,-0.41 -2.02,-0.53 -0.22,-0.05 -0.69,-0.14 -1.3,0.15 -0.23,0.1 -0.74,0.38 -1.38,0.18 -0.65,-0.15 -2.19,-0.59 -2.19,-0.59 -0.36,-0.46 -1.2,-1.62 -1.58,-2.15 -0.22,-0.27 -0.32,-0.44 -0.82,-0.72 -0.65,-0.42 -1.97,-1.23 -1.97,-1.23 l -4.37,1.23 c 0,0 -0.2,0.07 -0.5,0.12 -0.28,0.02 -0.42,0.04 -0.42,0.04 l -0.57,-2.98 2.41,-1.8 c 0,0 1.5,-1.08 2.54,-2.08 l 1.4,-1.33 c -1.52,0 -3.52,0.05 -4.65,-0.23 0,0 -0.26,-0.07 -0.4,-0.18 l 0.52,-0.55 c 5.38,-5.25 5.87,-8.39 6.01,-9.35 -1.07,1.21 -2.86,1.62 -4.1,1.97 -1.3,0.22 -2.16,0.37 -2.8,0.5 3.36,-3.26 3.94,-8.5 4.03,-10.65 h 131.91 c 7.48,0 13.61,6.12 13.61,13.61 v 129.41 z"
           id="path54" />
      </g>
    </g>
  </g>
</svg>
